<mxfile host="app.diagrams.net" modified="2021-07-15T07:57:40.752Z" agent="5.0 (Windows NT 10.0; Win64; x64) AppleWebKit/537.36 (KHTML, like Gecko) Chrome/91.0.4472.114 Safari/537.36" etag="U1m3wQDJRXmdNeHJBvpC" version="14.8.6" type="github">
  <diagram id="WwoGLtGooNb7acQtPaE4" name="Page-1">
    <mxGraphModel dx="1422" dy="794" grid="1" gridSize="10" guides="1" tooltips="1" connect="1" arrows="1" fold="1" page="1" pageScale="1" pageWidth="827" pageHeight="1169" math="0" shadow="0">
      <root>
        <mxCell id="0" />
        <mxCell id="1" parent="0" />
        <mxCell id="UhaoYyGay_nPtZ1N_jYF-8" style="edgeStyle=orthogonalEdgeStyle;rounded=0;orthogonalLoop=1;jettySize=auto;html=1;exitX=1;exitY=0.5;exitDx=0;exitDy=0;entryX=0;entryY=0.5;entryDx=0;entryDy=0;" edge="1" parent="1" source="UhaoYyGay_nPtZ1N_jYF-1" target="UhaoYyGay_nPtZ1N_jYF-2">
          <mxGeometry relative="1" as="geometry" />
        </mxCell>
        <mxCell id="UhaoYyGay_nPtZ1N_jYF-18" style="edgeStyle=orthogonalEdgeStyle;rounded=0;orthogonalLoop=1;jettySize=auto;html=1;entryX=0;entryY=0.5;entryDx=0;entryDy=0;" edge="1" parent="1" source="UhaoYyGay_nPtZ1N_jYF-1" target="UhaoYyGay_nPtZ1N_jYF-3">
          <mxGeometry relative="1" as="geometry" />
        </mxCell>
        <mxCell id="UhaoYyGay_nPtZ1N_jYF-19" style="edgeStyle=orthogonalEdgeStyle;rounded=0;orthogonalLoop=1;jettySize=auto;html=1;exitX=1;exitY=0.5;exitDx=0;exitDy=0;entryX=0;entryY=0.5;entryDx=0;entryDy=0;" edge="1" parent="1" source="UhaoYyGay_nPtZ1N_jYF-1" target="UhaoYyGay_nPtZ1N_jYF-5">
          <mxGeometry relative="1" as="geometry" />
        </mxCell>
        <mxCell id="UhaoYyGay_nPtZ1N_jYF-20" style="edgeStyle=orthogonalEdgeStyle;rounded=0;orthogonalLoop=1;jettySize=auto;html=1;entryX=0;entryY=0.5;entryDx=0;entryDy=0;" edge="1" parent="1" source="UhaoYyGay_nPtZ1N_jYF-1" target="UhaoYyGay_nPtZ1N_jYF-4">
          <mxGeometry relative="1" as="geometry" />
        </mxCell>
        <mxCell id="UhaoYyGay_nPtZ1N_jYF-21" style="edgeStyle=orthogonalEdgeStyle;rounded=0;orthogonalLoop=1;jettySize=auto;html=1;exitX=1;exitY=0.5;exitDx=0;exitDy=0;entryX=0;entryY=0.5;entryDx=0;entryDy=0;" edge="1" parent="1" source="UhaoYyGay_nPtZ1N_jYF-1" target="UhaoYyGay_nPtZ1N_jYF-6">
          <mxGeometry relative="1" as="geometry" />
        </mxCell>
        <mxCell id="UhaoYyGay_nPtZ1N_jYF-22" style="edgeStyle=orthogonalEdgeStyle;rounded=0;orthogonalLoop=1;jettySize=auto;html=1;exitX=1;exitY=0.5;exitDx=0;exitDy=0;entryX=0;entryY=0.5;entryDx=0;entryDy=0;" edge="1" parent="1" source="UhaoYyGay_nPtZ1N_jYF-1" target="UhaoYyGay_nPtZ1N_jYF-7">
          <mxGeometry relative="1" as="geometry" />
        </mxCell>
        <mxCell id="UhaoYyGay_nPtZ1N_jYF-1" value="메인 페이지" style="rounded=0;whiteSpace=wrap;html=1;" vertex="1" parent="1">
          <mxGeometry x="70" y="60" width="120" height="60" as="geometry" />
        </mxCell>
        <mxCell id="UhaoYyGay_nPtZ1N_jYF-2" value="전시소개" style="rounded=0;whiteSpace=wrap;html=1;" vertex="1" parent="1">
          <mxGeometry x="294" y="60" width="120" height="60" as="geometry" />
        </mxCell>
        <mxCell id="UhaoYyGay_nPtZ1N_jYF-3" value="레코드 마스터" style="rounded=0;whiteSpace=wrap;html=1;" vertex="1" parent="1">
          <mxGeometry x="294" y="340" width="120" height="60" as="geometry" />
        </mxCell>
        <mxCell id="UhaoYyGay_nPtZ1N_jYF-4" value="라디오 284" style="rounded=0;whiteSpace=wrap;html=1;" vertex="1" parent="1">
          <mxGeometry x="294" y="900" width="120" height="60" as="geometry" />
        </mxCell>
        <mxCell id="UhaoYyGay_nPtZ1N_jYF-5" value="레코드 문화" style="rounded=0;whiteSpace=wrap;html=1;" vertex="1" parent="1">
          <mxGeometry x="294" y="620" width="120" height="60" as="geometry" />
        </mxCell>
        <mxCell id="UhaoYyGay_nPtZ1N_jYF-6" value="레코드 투어" style="rounded=0;whiteSpace=wrap;html=1;" vertex="1" parent="1">
          <mxGeometry x="294" y="1180" width="120" height="60" as="geometry" />
        </mxCell>
        <mxCell id="UhaoYyGay_nPtZ1N_jYF-7" value="선물의 짐" style="rounded=0;whiteSpace=wrap;html=1;" vertex="1" parent="1">
          <mxGeometry x="294" y="1460" width="120" height="60" as="geometry" />
        </mxCell>
      </root>
    </mxGraphModel>
  </diagram>
</mxfile>
